<?xml version="1.0" standalone="no"?><!DOCTYPE svg PUBLIC "-//W3C//DTD SVG 1.1//EN" "http://www.w3.org/Graphics/SVG/1.1/DTD/svg11.dtd"><svg t="1650245665977" class="icon" viewBox="0 0 1024 1024" version="1.1" xmlns="http://www.w3.org/2000/svg" p-id="14509" xmlns:xlink="http://www.w3.org/1999/xlink" width="256" height="256"><defs><style type="text/css">@font-face { font-family: feedback-iconfont; src: url("//at.alicdn.com/t/font_1031158_u69w8yhxdu.woff2?t=1630033759944") format("woff2"), url("//at.alicdn.com/t/font_1031158_u69w8yhxdu.woff?t=1630033759944") format("woff"), url("//at.alicdn.com/t/font_1031158_u69w8yhxdu.ttf?t=1630033759944") format("truetype"); }
</style></defs><path d="M512 42.666667c259.2 0 469.333333 210.133333 469.333333 469.333333s-210.133333 469.333333-469.333333 469.333333S42.666667 771.2 42.666667 512 252.8 42.666667 512 42.666667z m0 64C288.149333 106.666667 106.666667 288.149333 106.666667 512s181.482667 405.333333 405.333333 405.333333 405.333333-181.482667 405.333333-405.333333S735.850667 106.666667 512 106.666667z m180.202667 264.426666l-64 234.666667a32 32 0 0 1-22.442667 22.442667l-234.666667 64a32 32 0 0 1-39.296-39.296l64-234.666667a32 32 0 0 1 22.442667-22.442667l234.666667-64a32 32 0 0 1 39.296 39.296z m-76.48 37.184l-162.986667 44.458667-44.458667 162.986667 162.986667-44.458667 44.458667-162.986667z" p-id="14510"></path></svg>