<?xml version="1.0" standalone="no"?><!DOCTYPE svg PUBLIC "-//W3C//DTD SVG 1.1//EN" "http://www.w3.org/Graphics/SVG/1.1/DTD/svg11.dtd"><svg class="icon" width="64px" height="64.00px" viewBox="0 0 1024 1024" version="1.1" xmlns="http://www.w3.org/2000/svg"><path fill="#dfdfdf" d="M946.7 173.1L531.5 588.3c-5.3 5.3-13.4 8.9-20.5 8.9s-15.1-3.6-20.5-8.9L75.3 173.1c-5.3-5.3-8.9-13.4-8.9-20.5s3.6-15.1 8.9-20.5l44.5-44.6c5.3-5.3 12.5-8.9 20.5-8.9 7.1 0 15.1 3.6 20.5 8.9L511 437.7 861.2 87.6c5.3-5.3 13.4-8.9 20.5-8.9s15.2 3.6 20.5 8.9l44.5 44.6c5.3 5.3 8.9 13.4 8.9 20.5 0 7-3.5 15.1-8.9 20.4z m0 342.1L531.5 930.5c-5.3 5.3-13.4 8.9-20.5 8.9s-15.1-3.6-20.5-8.9L75.3 515.2c-5.3-5.3-8.9-13.4-8.9-20.5s3.6-15.1 8.9-20.5l44.5-44.6c5.3-5.3 12.5-8.9 20.5-8.9 7.1 0 15.1 3.6 20.5 8.9L511 779.9l350.2-350.2c5.3-5.3 13.4-8.9 20.5-8.9s15.2 3.6 20.5 8.9l44.5 44.6c5.3 5.3 8.9 13.4 8.9 20.5s-3.5 15.1-8.9 20.4z"  /></svg>