<?xml version="1.0" standalone="no"?><!DOCTYPE svg PUBLIC "-//W3C//DTD SVG 1.1//EN" "http://www.w3.org/Graphics/SVG/1.1/DTD/svg11.dtd"><svg t="1644636589307" class="icon" viewBox="0 0 1024 1024" version="1.1" xmlns="http://www.w3.org/2000/svg" p-id="2586" xmlns:xlink="http://www.w3.org/1999/xlink" width="64" height="64"><defs><style type="text/css"></style></defs><path d="M946.292364 879.709091a84.456727 84.456727 0 0 1-7.912728 37.026909 197.585455 197.585455 0 0 1-18.408727 31.744 117.131636 117.131636 0 0 1-28.951273 21.154909A83.781818 83.781818 0 0 1 854.109091 977.454545H167.214545a83.781818 83.781818 0 0 1-36.864-7.936 67.141818 67.141818 0 0 1-31.58109-21.154909 95.045818 95.045818 0 0 1-20.945455-31.744A84.782545 84.782545 0 0 1 69.818182 879.709091V353.326545a99.118545 99.118545 0 0 1 97.396363-97.861818h689.57091A99.118545 99.118545 0 0 1 954.181818 353.326545v142.801455H709.399273a92.951273 92.951273 0 0 0-68.421818 26.437818 91.904 91.904 0 0 0-28.951273 68.770909 126.882909 126.882909 0 0 0 10.519273 47.592728 67.025455 67.025455 0 0 0 28.951272 31.744 85.969455 85.969455 0 0 0 55.272728 15.872h239.522909v193.163636zM804.165818 207.988364H327.749818c36.864-18.618182 73.704727-39.68 107.915637-58.181819l86.853818-47.616c28.951273-15.872 50.013091-26.437818 68.445091-37.026909a125.114182 125.114182 0 0 1 115.805091-7.936 116.736 116.736 0 0 1 39.563636 31.744z m-142.149818 383.464727a55.854545 55.854545 0 0 1 13.172364-34.373818 49.896727 49.896727 0 0 1 34.210909-13.218909 55.249455 55.249455 0 0 1 34.210909 13.218909 50.338909 50.338909 0 0 1 13.172363 34.373818 55.854545 55.854545 0 0 1-13.172363 34.373818 40.285091 40.285091 0 0 1-34.210909 13.218909 55.249455 55.249455 0 0 1-34.210909-13.218909 45.730909 45.730909 0 0 1-13.172364-34.373818z m0 0" p-id="2587"></path></svg>